<?xml version="1.0" standalone="no"?>
<!DOCTYPE svg PUBLIC "-//W3C//DTD SVG 20010904//EN"
 "http://www.w3.org/TR/2001/REC-SVG-20010904/DTD/svg10.dtd">
<svg version="1.0" xmlns="http://www.w3.org/2000/svg"
 width="512.000000pt" height="512.000000pt" viewBox="0 0 512.000000 512.000000"
 preserveAspectRatio="xMidYMid meet">

<g transform="translate(0.000000,512.000000) scale(0.100000,-0.100000)"
fill="#FFFF" stroke="none">
<path d="M4235 4945 c-43 -23 -1613 -1593 -1634 -1635 -29 -57 -294 -872 -293
-903 1 -41 28 -76 70 -94 37 -16 37 -15 487 133 l450 148 807 805 c444 442
814 819 824 836 36 67 31 73 -304 408 -334 334 -339 338 -407 302z m-250
-1375 c-390 -391 -715 -710 -720 -710 -6 0 -100 90 -210 200 l-200 200 715
715 715 715 205 -205 205 -205 -710 -710z m-1077 -673 l152 -152 -222 -74
c-123 -41 -228 -76 -235 -78 -6 -3 23 99 65 226 42 127 79 231 82 231 3 0 74
-69 158 -153z"/>
<path d="M572 4190 c-97 -26 -173 -70 -248 -144 -75 -76 -119 -152 -144 -253
-20 -77 -20 -110 -18 -1638 l3 -1560 26 -67 c36 -92 80 -158 150 -223 66 -60
174 -117 257 -134 37 -8 513 -11 1590 -11 1689 0 1597 -3 1725 61 90 46 194
154 240 249 19 41 41 102 47 135 8 43 10 372 8 1142 l-3 1081 -24 26 c-46 49
-133 43 -169 -13 -16 -23 -17 -119 -22 -1121 l-5 -1095 -25 -50 c-31 -64 -101
-134 -165 -165 l-50 -25 -1560 0 -1560 0 -63 34 c-74 40 -115 84 -151 161
l-26 55 0 1550 0 1550 26 55 c37 80 81 125 157 162 l67 33 1098 5 1099 5 29
33 c40 45 40 99 0 144 l-29 33 -1094 2 c-1051 2 -1096 1 -1166 -17z"/>
</g>
</svg>
