<?xml version="1.0" standalone="no"?>
<!DOCTYPE svg PUBLIC "-//W3C//DTD SVG 20010904//EN"
 "http://www.w3.org/TR/2001/REC-SVG-20010904/DTD/svg10.dtd">
<svg version="1.0" xmlns="http://www.w3.org/2000/svg"
 width="200.000000pt" height="200.000000pt" viewBox="0 0 200.000000 200.000000"
 preserveAspectRatio="xMidYMid meet">

<g transform="translate(0.000000,200.000000) scale(0.100000,-0.100000)"
fill="#FFFFFF" stroke="none">
<path d="M839 1985 c-204 -32 -395 -130 -544 -280 -217 -216 -324 -526 -285
-825 53 -411 344 -742 745 -847 86 -22 120 -26 245 -25 124 0 160 4 244 26
478 125 798 580 747 1060 -26 238 -120 442 -276 601 -233 236 -549 341 -876
290z m414 -79 c167 -50 301 -131 423 -257 117 -122 195 -263 236 -426 31 -124
31 -322 0 -446 -68 -272 -256 -503 -508 -624 -148 -70 -222 -86 -404 -86 -128
0 -169 3 -233 21 -402 111 -685 456 -704 862 -7 139 6 231 51 362 106 310 382
548 711 614 112 22 318 12 428 -20z"/>
<path d="M706 1554 c-81 -20 -164 -66 -224 -125 -48 -49 -102 -136 -116 -189
-4 -14 10 5 30 43 22 40 60 89 95 121 154 143 363 170 699 90 198 -47 341
-137 411 -259 36 -63 38 -42 3 27 -39 77 -120 151 -217 197 -191 92 -509 137
-681 95z"/>
<path d="M624 1446 c-38 -18 -94 -56 -124 -85 l-55 -52 59 46 c32 26 88 61
125 78 79 38 75 36 70 42 -3 2 -37 -10 -75 -29z"/>
<path d="M1570 1406 c0 -2 8 -10 18 -17 15 -13 16 -12 3 4 -13 16 -21 21 -21
13z"/>
<path d="M1540 1397 c0 -2 14 -16 32 -33 30 -28 30 -17 0 19 -13 15 -32 23
-32 14z"/>
<path d="M225 1286 c-38 -89 -50 -161 -49 -291 0 -94 5 -148 18 -195 21 -77
65 -180 77 -180 5 0 -2 24 -15 54 -53 119 -61 162 -61 326 0 144 2 161 28 234
28 80 30 119 2 52z"/>
<path d="M1783 1233 c22 -67 31 -113 35 -193 7 -147 -11 -233 -85 -407 -3 -7
0 -13 5 -13 6 0 24 35 40 78 51 131 69 264 53 387 -11 89 -51 227 -67 232 -6
2 3 -36 19 -84z"/>
<path d="M351 1194 c0 -11 3 -14 6 -6 3 7 2 16 -1 19 -3 4 -6 -2 -5 -13z"/>
<path d="M361 941 c-1 -7 13 -43 31 -80 42 -89 122 -167 218 -214 104 -51 175
-67 316 -74 139 -7 194 0 194 24 0 14 -11 15 -77 10 -309 -24 -570 96 -662
303 -11 25 -20 39 -20 31z"/>
<path d="M1621 884 c0 -11 3 -14 6 -6 3 7 2 16 -1 19 -3 4 -6 -2 -5 -13z"/>
<path d="M1596 817 c-27 -71 -85 -116 -208 -160 -94 -35 -105 -42 -126 -78
-12 -21 -37 -55 -55 -76 -35 -40 -127 -116 -133 -110 -3 2 3 23 11 47 8 23 15
45 15 49 -1 14 -60 -116 -60 -132 0 -17 1 -17 32 0 52 30 151 128 183 181 26
44 36 52 85 67 99 31 195 81 218 112 27 38 64 123 59 136 -2 6 -11 -11 -21
-36z"/>
<path d="M1558 678 c-42 -46 -50 -62 -17 -32 20 18 64 74 57 74 -2 0 -20 -19
-40 -42z"/>
<path d="M1288 538 c-38 -41 -64 -78 -54 -78 2 0 21 23 42 50 26 34 45 50 61
50 13 0 23 5 23 10 0 23 -36 7 -72 -32z"/>
<path d="M1020 530 l-25 -8 27 -1 c15 -1 30 4 33 9 7 11 0 11 -35 0z"/>
</g>
</svg>
