<?xml version="1.0" standalone="no"?>
<!DOCTYPE svg PUBLIC "-//W3C//DTD SVG 20010904//EN"
 "http://www.w3.org/TR/2001/REC-SVG-20010904/DTD/svg10.dtd">
<svg version="1.0" xmlns="http://www.w3.org/2000/svg"
 width="512.000000pt" height="512.000000pt" viewBox="0 0 512.000000 512.000000"
 preserveAspectRatio="xMidYMid meet">

<g transform="translate(0.000000,512.000000) scale(0.100000,-0.100000)"
fill="#FFFF" stroke="none">
<path d="M2420 5114 c-84 -11 -201 -39 -280 -66 -436 -153 -747 -509 -846
-970 -26 -117 -25 -380 0 -498 165 -766 934 -1214 1671 -974 309 101 587 338
738 631 160 309 189 668 81 992 -148 446 -510 768 -974 867 -73 15 -320 27
-390 18z m300 -209 c244 -37 425 -129 606 -309 142 -143 227 -283 278 -460
162 -557 -134 -1137 -678 -1332 -235 -83 -475 -85 -712 -5 -368 124 -633 420
-721 806 -26 111 -23 356 5 468 58 234 173 424 349 578 239 209 558 302 873
254z"/>
<path d="M1335 2615 c-130 -28 -239 -97 -367 -233 -173 -185 -287 -349 -393
-567 -84 -172 -124 -280 -166 -449 -50 -207 -62 -324 -63 -616 -1 -263 -1
-266 26 -345 67 -197 215 -334 414 -385 75 -20 117 -20 1774 -20 1657 0 1699
0 1774 20 200 51 350 191 412 385 22 68 27 104 31 240 6 177 -8 422 -32 560
-38 222 -96 399 -200 610 -87 179 -182 324 -308 471 -225 263 -358 340 -582
338 -130 -1 -180 -16 -325 -99 -226 -129 -396 -183 -651 -206 -86 -8 -152 -8
-238 0 -267 24 -425 78 -712 239 -113 64 -264 86 -394 57z m283 -227 c240
-126 308 -157 394 -186 466 -154 980 -104 1392 137 156 91 242 109 357 75 80
-23 135 -63 241 -172 280 -288 463 -645 540 -1050 20 -105 23 -149 23 -417 l0
-300 -28 -57 c-39 -79 -104 -143 -185 -181 l-67 -32 -1695 -3 c-1110 -1 -1711
1 -1742 8 -155 33 -267 149 -299 309 -16 83 -6 466 16 611 69 445 273 845 590
1153 117 115 196 149 323 143 59 -2 84 -9 140 -38z"/>
</g>
</svg>
